<!-- <svg width="1440" height="173" viewBox="0 0 1440 173" fill="none" xmlns="http://www.w3.org/2000/svg">
<path d="M49.5517 131.274C40.3218 131.274 32.0087 130.213 24.612 128.089C17.2787 125.924 11.4626 122.739 7.1638 118.532C2.92815 114.327 0.810333 109.14 0.810333 102.973C0.810333 97.6642 2.32757 93.2742 5.36207 89.803C8.3965 86.3317 12.5374 83.5547 17.7844 81.472C23.0317 79.3892 28.9425 77.8169 35.5172 76.7552C42.1552 75.6526 49.0143 74.8562 56.0949 74.3661C64.6293 73.7944 71.5517 73.2839 76.8621 72.8347C82.1725 72.3447 86.0288 71.6096 88.4311 70.6295C90.8965 69.6085 92.1293 68.0363 92.1293 65.9127V65.5451C92.1293 60.9304 90.0114 57.3571 85.7759 54.8251C81.5403 52.2932 75.4397 51.0271 67.4742 51.0271C59.0661 51.0271 52.3966 52.2114 47.4655 54.5801C42.5978 56.9487 39.3104 59.7461 37.6034 62.9723L5.55171 60.0319C8.0804 54.3146 12.2528 49.5366 18.069 45.6978C23.885 41.8182 30.9971 38.9187 39.4052 36.9993C47.8133 35.0391 57.1063 34.0589 67.2845 34.0589C74.3018 34.0589 81.2874 34.5898 88.2413 35.6516C95.1954 36.7134 101.549 38.4694 107.302 40.9197C113.055 43.3292 117.67 46.6166 121.146 50.7822C124.687 54.9476 126.457 60.1545 126.457 66.4027V129.375H93.4568V116.449H92.3189C90.2327 119.064 87.2932 121.513 83.5 123.801C79.7702 126.047 75.0603 127.863 69.3707 129.252C63.7442 130.6 57.138 131.274 49.5517 131.274ZM58.4655 114.98C65.3563 114.98 71.3305 114.101 76.388 112.346C81.4455 110.549 85.3333 108.18 88.0517 105.24C90.8334 102.299 92.2241 99.0936 92.2241 95.6224V84.5348C91.1495 85.1065 89.3161 85.6374 86.7241 86.1275C84.1954 86.6175 81.3505 87.0463 78.1896 87.4138C75.0288 87.7815 71.8995 88.1081 68.8017 88.394C65.7039 88.6799 63.0172 88.9249 60.7414 89.1291C55.6207 89.5783 51.0374 90.3133 46.9913 91.3343C42.9454 92.3553 39.7529 93.7846 37.4138 95.6224C35.0747 97.4192 33.9051 99.7469 33.9051 102.606C33.9051 106.689 36.2127 109.773 40.8275 111.855C45.4425 113.938 51.3218 114.98 58.4655 114.98ZM285.863 35.2841L233.991 129.375H196.061L144.19 35.2841H180.793L214.267 105.178H215.784L249.354 35.2841H285.863ZM347.357 131.274C338.128 131.274 329.815 130.213 322.418 128.089C315.084 125.924 309.268 122.739 304.971 118.532C300.735 114.327 298.617 109.14 298.617 102.973C298.617 97.6642 300.134 93.2742 303.168 89.803C306.202 86.3317 310.343 83.5547 315.59 81.472C320.837 79.3892 326.749 77.8169 333.323 76.7552C339.962 75.6526 346.82 74.8562 353.901 74.3661C362.435 73.7944 369.358 73.2839 374.668 72.8347C379.979 72.3447 383.834 71.6096 386.237 70.6295C388.703 69.6085 389.936 68.0363 389.936 65.9127V65.5451C389.936 60.9304 387.818 57.3571 383.582 54.8251C379.346 52.2932 373.246 51.0271 365.28 51.0271C356.872 51.0271 350.203 52.2114 345.271 54.5801C340.404 56.9487 337.116 59.7461 335.409 62.9723L303.358 60.0319C305.887 54.3146 310.059 49.5366 315.876 45.6978C321.692 41.8182 328.803 38.9187 337.212 36.9993C345.62 35.0391 354.913 34.0589 365.09 34.0589C372.108 34.0589 379.093 34.5898 386.047 35.6516C393.002 36.7134 399.356 38.4694 405.108 40.9197C410.861 43.3292 415.476 46.6166 418.953 50.7822C422.492 54.9476 424.263 60.1545 424.263 66.4027V129.375H391.263V116.449H390.124C388.038 119.064 385.099 121.513 381.306 123.801C377.576 126.047 372.866 127.863 367.176 129.252C361.55 130.6 354.944 131.274 347.357 131.274ZM356.271 114.98C363.162 114.98 369.137 114.101 374.194 112.346C379.251 110.549 383.14 108.18 385.859 105.24C388.639 102.299 390.031 99.0936 390.031 95.6224V84.5348C388.956 85.1065 387.122 85.6374 384.53 86.1275C382.002 86.6175 379.156 87.0463 375.995 87.4138C372.834 87.7815 369.705 88.1081 366.607 88.394C363.509 88.6799 360.824 88.9249 358.548 89.1291C353.427 89.5783 348.843 90.3133 344.797 91.3343C340.751 92.3553 337.559 93.7846 335.221 95.6224C332.881 97.4192 331.711 99.7469 331.711 102.606C331.711 106.689 334.019 109.773 338.634 111.855C343.248 113.938 349.128 114.98 356.271 114.98ZM493.108 74.2436V129.375H458.781V35.2841H491.591V51.2722H493.297C496.648 46.0041 501.99 41.8182 509.324 38.7145C516.721 35.6108 525.855 34.0589 536.728 34.0589C546.78 34.0589 555.536 35.4475 562.996 38.2244C570.518 41.0014 576.334 45.024 580.443 50.2921C584.616 55.5602 586.67 61.9513 586.608 69.4655V129.375H552.28V72.8959C552.28 66.6069 549.751 61.6859 544.694 58.133C539.701 54.5801 532.778 52.8036 523.927 52.8036C517.921 52.8036 512.58 53.6612 507.9 55.3764C503.285 57.0508 499.65 59.4807 496.995 62.666C494.403 65.8513 493.108 69.7106 493.108 74.2436ZM694.237 35.2841V52.4361H610.505V35.2841H694.237ZM631.177 12.7415H665.504V101.074C665.504 104.055 666.2 106.342 667.59 107.935C669.045 109.487 670.941 110.549 673.28 111.12C675.619 111.692 678.211 111.978 681.055 111.978C683.205 111.978 685.166 111.876 686.935 111.672C688.769 111.467 690.159 111.284 691.107 111.12L696.892 128.456C695.06 128.865 692.436 129.314 689.021 129.804C685.672 130.294 681.563 130.579 676.694 130.661C668.096 130.825 660.352 129.987 653.461 128.15C646.571 126.271 641.102 123.372 637.056 119.451C633.074 115.531 631.113 110.631 631.177 104.75V12.7415ZM784.726 166.619C772.399 166.619 761.81 165.537 752.959 163.373C744.109 161.249 736.996 158.391 731.623 154.797C726.249 151.203 722.519 147.221 720.433 142.852L751.347 138.012C752.737 139.85 754.76 141.668 757.415 143.464C760.071 145.302 763.642 146.813 768.132 147.997C772.683 149.222 778.404 149.835 785.296 149.835C795.031 149.835 803.092 148.304 809.477 145.241C815.861 142.219 819.054 137.237 819.054 130.294V112.468H817.346C815.577 114.755 812.985 117.103 809.571 119.512C806.221 121.922 801.763 123.943 796.201 125.577C790.701 127.21 783.778 128.027 775.434 128.027C764.243 128.027 754.098 126.333 744.993 122.943C735.953 119.512 728.746 114.407 723.374 107.629C718.063 100.809 715.408 92.2736 715.408 82.0232C715.408 71.6912 718.063 62.9723 723.374 55.8665C728.746 48.7198 735.984 43.3088 745.088 39.6334C754.193 35.9171 764.338 34.0589 775.529 34.0589C784.062 34.0589 791.08 34.9982 796.579 36.8767C802.144 38.7145 806.568 40.9402 809.856 43.5538C813.142 46.1266 815.641 48.5565 817.346 50.8434H819.244V35.2841H853.097V130.906C853.097 138.952 850.127 145.608 844.183 150.876C838.24 156.145 830.117 160.085 819.813 162.699C809.507 165.312 797.813 166.619 784.726 166.619ZM785.01 110.631C792.28 110.631 798.477 109.487 803.597 107.2C808.718 104.913 812.606 101.626 815.26 97.3375C817.915 93.0495 819.244 87.9039 819.244 81.9007C819.244 75.9792 817.915 70.7928 815.26 66.3414C812.668 61.8901 808.813 58.4392 803.693 55.989C798.634 53.4979 792.407 52.2523 785.01 52.2523C777.361 52.2523 770.976 53.5387 765.855 56.1115C760.735 58.6843 756.878 62.2168 754.286 66.709C751.694 71.1603 750.399 76.2243 750.399 81.9007C750.399 87.6589 751.694 92.7024 754.286 97.0312C756.941 101.319 760.83 104.668 765.951 107.077C771.134 109.446 777.488 110.631 785.01 110.631ZM930.192 131.274C920.962 131.274 912.649 130.213 905.252 128.089C897.919 125.924 892.103 122.739 887.803 118.532C883.568 114.327 881.451 109.14 881.451 102.973C881.451 97.6642 882.968 93.2742 886.003 89.803C889.037 86.3317 893.177 83.5547 898.425 81.472C903.672 79.3892 909.583 77.8169 916.157 76.7552C922.795 75.6526 929.654 74.8562 936.736 74.3661C945.269 73.7944 952.192 73.2839 957.503 72.8347C962.813 72.3447 966.669 71.6096 969.072 70.6295C971.537 69.6085 972.769 68.0363 972.769 65.9127V65.5451C972.769 60.9304 970.651 57.3571 966.417 54.8251C962.181 52.2932 956.079 51.0271 948.115 51.0271C939.707 51.0271 933.037 52.2114 928.106 54.5801C923.237 56.9487 919.951 59.7461 918.244 62.9723L886.191 60.0319C888.721 54.3146 892.894 49.5366 898.708 45.6978C904.525 41.8182 911.638 38.9187 920.046 36.9993C928.453 35.0391 937.747 34.0589 947.925 34.0589C954.943 34.0589 961.927 34.5898 968.882 35.6516C975.836 36.7134 982.188 38.4694 987.941 40.9197C993.694 43.3292 998.309 46.6166 1001.79 50.7822C1005.33 54.9476 1007.1 60.1545 1007.1 66.4027V129.375H974.097V116.449H972.959C970.873 119.064 967.934 121.513 964.14 123.801C960.41 126.047 955.7 127.863 950.011 129.252C944.385 130.6 937.779 131.274 930.192 131.274ZM939.106 114.98C945.997 114.98 951.97 114.101 957.029 112.346C962.086 110.549 965.973 108.18 968.691 105.24C971.474 102.299 972.864 99.0936 972.864 95.6224V84.5348C971.789 85.1065 969.957 85.6374 967.365 86.1275C964.836 86.6175 961.991 87.0463 958.83 87.4138C955.669 87.7815 952.539 88.1081 949.442 88.394C946.344 88.6799 943.657 88.9249 941.382 89.1291C936.26 89.5783 931.677 90.3133 927.632 91.3343C923.586 92.3553 920.393 93.7846 918.053 95.6224C915.715 97.4192 914.545 99.7469 914.545 102.606C914.545 106.689 916.853 109.773 921.468 111.855C926.083 113.938 931.963 114.98 939.106 114.98ZM1041.61 129.375V35.2841H1074.9V50.9659H1076.42C1079.07 45.5344 1083.62 41.3486 1090.07 38.4082C1096.58 35.427 1104.01 33.9365 1112.36 33.9365C1114.25 33.9365 1116.37 33.9977 1118.71 34.1202C1121.11 34.2019 1123.1 34.3449 1124.68 34.5491V54.9476C1123.23 54.6209 1120.92 54.335 1117.76 54.0901C1114.66 53.8041 1111.66 53.6612 1108.75 53.6612C1102.49 53.6612 1096.87 54.5392 1091.87 56.2953C1086.94 58.0105 1083.05 60.3995 1080.21 63.4623C1077.36 66.5252 1075.94 70.0577 1075.94 74.0599V129.375H1041.61ZM1195.54 131.029C1184.1 131.029 1173.86 129.13 1164.82 125.332C1155.78 121.534 1148.63 116.021 1143.39 108.793C1138.14 101.564 1135.52 92.7841 1135.52 82.4521C1135.52 71.9975 1138.17 63.1765 1143.48 55.989C1148.86 48.7607 1156.09 43.3088 1165.2 39.6334C1174.3 35.9171 1184.45 34.0589 1195.64 34.0589C1204.17 34.0589 1211.19 34.9982 1216.69 36.8767C1222.19 38.7145 1226.55 40.9402 1229.78 43.5538C1233 46.1266 1235.5 48.5565 1237.27 50.8434H1238.69V3.92045H1273.11V129.375H1239.35V114.551H1237.27C1235.5 116.837 1232.94 119.268 1229.59 121.84C1226.24 124.372 1221.81 126.536 1216.31 128.334C1210.81 130.131 1203.89 131.029 1195.54 131.029ZM1205.12 112.835C1212.39 112.835 1218.59 111.57 1223.71 109.037C1228.83 106.465 1232.72 102.892 1235.37 98.3177C1238.03 93.7438 1239.35 88.4144 1239.35 82.3295C1239.35 76.2447 1238.03 70.9561 1235.37 66.4639C1232.78 61.9718 1228.92 58.4801 1223.8 55.989C1218.74 53.4979 1212.52 52.2523 1205.12 52.2523C1197.47 52.2523 1191.09 53.5387 1185.97 56.1115C1180.85 58.6843 1176.99 62.2372 1174.4 66.7702C1171.8 71.3033 1170.51 76.4897 1170.51 82.3295C1170.51 88.2102 1171.8 93.4579 1174.4 98.0726C1177.05 102.646 1180.94 106.261 1186.06 108.915C1191.24 111.529 1197.6 112.835 1205.12 112.835ZM1374.17 131.213C1359.57 131.213 1346.96 129.252 1336.34 125.332C1325.78 121.371 1317.66 115.776 1311.97 108.548C1306.28 101.278 1303.43 92.7228 1303.43 82.8809C1303.43 73.2022 1306.28 64.7079 1311.97 57.3979C1317.72 50.0471 1325.75 44.3297 1336.05 40.2459C1346.36 36.1213 1358.47 34.0589 1372.37 34.0589C1381.35 34.0589 1389.82 34.9982 1397.79 36.8767C1405.82 38.7145 1412.9 41.5731 1419.03 45.4528C1425.22 49.3324 1430.09 54.2738 1433.63 60.277C1437.17 66.2394 1438.94 73.3452 1438.94 81.5944V88.394H1319.55V73.4473H1406.04C1405.97 69.2001 1404.55 65.4226 1401.77 62.1147C1398.99 58.766 1395.1 56.1319 1390.11 54.2125C1385.18 52.2932 1379.42 51.3334 1372.85 51.3334C1365.83 51.3334 1359.67 52.4361 1354.36 54.6413C1349.05 56.8058 1344.9 59.6644 1341.93 63.2174C1339.03 66.7294 1337.54 70.5886 1337.48 74.7949V87.8427C1337.48 93.3149 1339.03 98.0114 1342.12 101.932C1345.22 105.811 1349.55 108.793 1355.11 110.875C1360.68 112.917 1367.19 113.938 1374.65 113.938C1379.64 113.938 1384.16 113.489 1388.21 112.591C1392.25 111.652 1395.76 110.284 1398.74 108.486C1401.71 106.689 1403.95 104.464 1405.47 101.809L1437.52 104.137C1435.5 109.61 1431.64 114.387 1425.95 118.471C1420.32 122.514 1413.12 125.659 1404.33 127.904C1395.54 130.11 1385.49 131.213 1374.17 131.213Z" fill="white"/>
</svg> -->

<svg width="360" height="44" viewBox="0 0 360 44" fill="none" xmlns="http://www.w3.org/2000/svg">
<path d="M8.06622 43.4144H0L14.6862 0.585551H24.0153L38.7219 43.4144H30.6557L19.5137 9.36882H19.1878L8.06622 43.4144ZM8.33101 26.6217H30.3297V32.8536H8.33101V26.6217ZM42.1682 0.585551L53.0253 34.2966H53.453L64.2893 0.585551H72.6L57.8933 43.4144H48.5641L33.8781 0.585551H42.1682ZM75.7103 43.4144H67.6441L82.3304 0.585551H91.6596L106.366 43.4144H98.2997L87.1579 9.36882H86.832L75.7103 43.4144ZM75.9753 26.6217H97.9738V32.8536H75.9753V26.6217ZM143.274 0.585551V43.4144H136.552L116.896 14.2414H116.55V43.4144H108.993V0.585551H115.755L135.391 29.7794H135.758V0.585551H143.274ZM146.807 7.08934V0.585551H180.09V7.08934H167.197V43.4144H159.701V7.08934H146.807ZM209.737 14.2624C209.397 13.1331 208.929 12.1223 208.331 11.23C207.747 10.3238 207.041 9.55005 206.213 8.90874C205.398 8.26743 204.461 7.78645 203.402 7.46576C202.343 7.13119 201.188 6.96387 199.939 6.96387C197.699 6.96387 195.702 7.54246 193.951 8.69961C192.199 9.85679 190.82 11.5577 189.816 13.8023C188.824 16.033 188.329 18.7516 188.329 21.9581C188.329 25.1926 188.824 27.9322 189.816 30.1768C190.807 32.4214 192.185 34.1292 193.951 35.3003C195.716 36.4573 197.766 37.0359 200.102 37.0359C202.22 37.0359 204.054 36.6178 205.602 35.7814C207.163 34.9448 208.365 33.7598 209.207 32.2262C210.049 30.6787 210.47 28.8663 210.47 26.7889L212.181 27.0608H200.856V20.9962H217.782V26.1407C217.782 29.8073 217.022 32.9791 215.501 35.6559C213.98 38.3326 211.889 40.396 209.228 41.8461C206.566 43.2819 203.511 44 200.061 44C196.218 44 192.844 43.1148 189.938 41.3441C187.045 39.5597 184.784 37.0293 183.155 33.7528C181.539 30.4626 180.731 26.5589 180.731 22.0418C180.731 18.5843 181.206 15.4962 182.157 12.7776C183.121 10.0589 184.465 7.75159 186.19 5.85549C187.914 3.94548 189.938 2.49556 192.26 1.5057C194.582 0.501902 197.108 0 199.837 0C202.146 0 204.298 0.348542 206.294 1.04563C208.29 1.72877 210.063 2.70469 211.61 3.97338C213.172 5.24208 214.456 6.74778 215.46 8.49048C216.465 10.2332 217.124 12.1572 217.436 14.2624H209.737ZM226.291 43.4144H218.224L232.911 0.585551H242.24L256.947 43.4144H248.88L237.738 9.36882H237.412L226.291 43.4144ZM226.556 26.6217H248.554V32.8536H226.556V26.6217ZM259.573 43.4144V0.585551H275.217C278.421 0.585551 281.11 1.15716 283.283 2.30038C285.469 3.44359 287.119 5.0469 288.232 7.11025C289.359 9.15968 289.923 11.5507 289.923 14.2833C289.923 17.0298 289.353 19.4138 288.212 21.4354C287.085 23.4429 285.422 24.9974 283.222 26.0988C281.022 27.1863 278.319 27.73 275.115 27.73H263.973V21.289H274.096C275.97 21.289 277.505 21.0241 278.7 20.4943C279.895 19.9506 280.777 19.1628 281.348 18.1312C281.932 17.0855 282.223 15.8029 282.223 14.2833C282.223 12.7636 281.932 11.4671 281.348 10.3935C280.764 9.30606 279.874 8.48352 278.679 7.92583C277.484 7.35424 275.943 7.06844 274.055 7.06844H267.13V43.4144H259.573ZM281.124 24.0076L291.451 43.4144H283.018L272.874 24.0076H281.124ZM308.148 43.4144H294.011V0.585551H308.433C312.574 0.585551 316.132 1.44297 319.106 3.15779C322.094 4.85868 324.389 7.30543 325.991 10.4981C327.593 13.6907 328.394 17.5108 328.394 21.9581C328.394 26.4195 327.586 30.2535 325.97 33.46C324.368 36.6668 322.053 39.1272 319.024 40.842C316.01 42.5568 312.384 43.4144 308.148 43.4144ZM301.568 36.7014H307.781C310.687 36.7014 313.111 36.1577 315.053 35.0703C316.995 33.9689 318.454 32.3308 319.432 30.1559C320.41 27.967 320.899 25.2345 320.899 21.9581C320.899 18.6819 320.41 15.9632 319.432 13.8023C318.454 11.6274 317.008 10.0032 315.093 8.92965C313.192 7.84221 310.83 7.29848 308.005 7.29848H301.568V36.7014ZM332.706 43.4144V0.585551H359.839V7.08934H340.264V18.7167H358.433V25.2205H340.264V36.9108H360V43.4144H332.706Z" fill="black"/>
</svg>