<svg width="1408" height="170" viewBox="0 0 1408 170" fill="none" xmlns="http://www.w3.org/2000/svg">
<path d="M57.7471 129.371C48.7969 129.371 40.7357 128.326 33.5632 126.232C26.4521 124.099 20.8122 120.96 16.6437 116.814C12.5364 112.67 10.4828 107.558 10.4828 101.481C10.4828 96.2488 11.954 91.9224 14.8966 88.5015C17.839 85.0805 21.8544 82.3437 26.9425 80.2912C32.0307 78.2387 37.7624 76.6891 44.1379 75.6428C50.5747 74.5562 57.226 73.7713 64.092 73.2884C72.3678 72.7249 79.0804 72.2218 84.23 71.7791C89.3794 71.2962 93.1188 70.5718 95.4483 69.6059C97.839 68.5997 99.0345 67.0502 99.0345 64.9574V64.5952C99.0345 60.0474 96.9808 56.5258 92.8736 54.0306C88.7663 51.5353 82.8506 50.2876 75.1265 50.2876C66.9732 50.2876 60.5058 51.4547 55.7241 53.7891C51.0039 56.1234 47.8162 58.8802 46.1609 62.0597L15.0805 59.1619C17.5325 53.5275 21.5785 48.8187 27.2184 45.0355C32.8582 41.2121 39.7548 38.3547 47.9081 36.4631C56.0614 34.5312 65.0727 33.5653 74.9425 33.5653C81.7472 33.5653 88.5211 34.0885 95.2643 35.135C102.008 36.1813 108.169 37.9119 113.747 40.3267C119.326 42.7012 123.801 45.941 127.172 50.0462C130.605 54.1513 132.322 59.2827 132.322 65.4403V127.5H100.322V114.762H99.2184C97.1954 117.338 94.3449 119.752 90.6666 122.007C87.0498 124.22 82.4828 126.01 76.9655 127.379C71.5096 128.707 65.1035 129.371 57.7471 129.371ZM66.3908 113.313C73.0728 113.313 78.866 112.448 83.7702 110.718C88.6744 108.947 92.4444 106.612 95.0805 103.714C97.7778 100.817 99.1264 97.6575 99.1264 94.2365V83.3097C98.0844 83.8731 96.3066 84.3963 93.793 84.8793C91.341 85.3622 88.5823 85.7848 85.5172 86.147C82.4522 86.5093 79.4177 86.8312 76.4138 87.1129C73.4099 87.3947 70.8046 87.6362 68.5978 87.8374C63.6322 88.28 59.1878 89.0045 55.2643 90.0106C51.341 91.0168 48.2452 92.4254 45.977 94.2365C43.7089 96.0073 42.5747 98.3013 42.5747 101.119C42.5747 105.143 44.8123 108.182 49.2873 110.234C53.7625 112.287 59.4636 113.313 66.3908 113.313ZM286.897 34.7728L236.597 127.5H199.816L149.517 34.7728H185.011L217.471 103.654H218.942L251.495 34.7728H286.897ZM346.528 129.371C337.579 129.371 329.517 128.326 322.345 126.232C315.233 124.099 309.593 120.96 305.426 116.814C301.318 112.67 299.265 107.558 299.265 101.481C299.265 96.2488 300.736 91.9224 303.678 88.5015C306.62 85.0805 310.636 82.3437 315.724 80.2912C320.812 78.2387 326.544 76.6891 332.919 75.6428C339.357 74.5562 346.007 73.7713 352.874 73.2884C361.149 72.7249 367.862 72.2218 373.012 71.7791C378.161 71.2962 381.9 70.5718 384.23 69.6059C386.621 68.5997 387.817 67.0502 387.817 64.9574V64.5952C387.817 60.0474 385.763 56.5258 381.655 54.0306C377.548 51.5353 371.633 50.2876 363.908 50.2876C355.755 50.2876 349.288 51.4547 344.505 53.7891C339.786 56.1234 336.598 58.8802 334.942 62.0597L303.863 59.1619C306.314 53.5275 310.36 48.8187 316.001 45.0355C321.641 41.2121 328.537 38.3547 336.69 36.4631C344.843 34.5312 353.855 33.5653 363.724 33.5653C370.529 33.5653 377.302 34.0885 384.046 35.135C390.79 36.1813 396.951 37.9119 402.529 40.3267C408.108 42.7012 412.583 45.941 415.954 50.0462C419.387 54.1513 421.104 59.2827 421.104 65.4403V127.5H389.103V114.762H387.999C385.976 117.338 383.126 119.752 379.448 122.007C375.831 124.22 371.264 126.01 365.747 127.379C360.291 128.707 353.885 129.371 346.528 129.371ZM355.172 113.313C361.854 113.313 367.648 112.448 372.552 110.718C377.456 108.947 381.227 106.612 383.863 103.714C386.559 100.817 387.909 97.6575 387.909 94.2365V83.3097C386.867 83.8731 385.088 84.3963 382.575 84.8793C380.123 85.3622 377.363 85.7848 374.298 86.147C371.233 86.5093 368.198 86.8312 365.195 87.1129C362.191 87.3947 359.587 87.6362 357.38 87.8374C352.414 88.28 347.969 89.0045 344.046 90.0106C340.123 91.0168 337.027 92.4254 334.759 94.2365C332.49 96.0073 331.356 98.3013 331.356 101.119C331.356 105.143 333.594 108.182 338.069 110.234C342.544 112.287 348.245 113.313 355.172 113.313ZM487.862 73.1676V127.5H454.575V34.7728H486.391V50.5291H488.045C491.295 45.3374 496.475 41.2121 503.587 38.1534C510.759 35.0947 519.617 33.5653 530.161 33.5653C539.908 33.5653 548.398 34.9337 555.632 37.6704C562.927 40.4072 568.567 44.3715 572.551 49.5632C576.597 54.755 578.589 61.0535 578.529 68.4588V127.5H545.241V71.8395C545.241 65.6416 542.789 60.7919 537.885 57.2905C533.043 53.7891 526.33 52.0384 517.748 52.0384C511.923 52.0384 506.744 52.8835 502.206 54.5738C497.731 56.224 494.206 58.6187 491.632 61.7578C489.118 64.897 487.862 68.7003 487.862 73.1676ZM682.896 34.7728V51.6762H601.702V34.7728H682.896ZM621.747 12.5568H655.034V99.6094C655.034 102.547 655.709 104.801 657.057 106.371C658.468 107.9 660.307 108.947 662.574 109.51C664.843 110.073 667.356 110.356 670.114 110.356C672.199 110.356 674.1 110.255 675.816 110.054C677.594 109.852 678.942 109.671 679.862 109.51L685.471 126.595C683.694 126.997 681.15 127.439 677.839 127.923C674.591 128.405 670.606 128.687 665.885 128.768C657.547 128.929 650.038 128.104 643.356 126.293C636.675 124.441 631.372 121.584 627.449 117.72C623.587 113.856 621.685 109.027 621.747 103.232V12.5568ZM770.644 164.204C758.69 164.204 748.422 163.138 739.839 161.005C731.257 158.912 724.359 156.095 719.15 152.554C713.939 149.011 710.321 145.088 708.298 140.781L738.276 136.012C739.624 137.823 741.585 139.615 744.16 141.385C746.735 143.196 750.199 144.685 754.552 145.853C758.965 147.06 764.513 147.663 771.196 147.663C780.636 147.663 788.452 146.154 794.644 143.136C800.835 140.158 803.931 135.248 803.931 128.405V110.838H802.275C800.56 113.091 798.046 115.406 794.735 117.78C791.487 120.155 787.164 122.147 781.77 123.757C776.438 125.367 769.724 126.172 761.633 126.172C750.781 126.172 740.943 124.502 732.115 121.161C723.348 117.78 716.36 112.749 711.15 106.069C706 99.3478 703.425 90.9363 703.425 80.8345C703.425 70.6522 706 62.0597 711.15 55.0568C716.36 48.0137 723.379 42.6812 732.207 39.059C741.035 35.3966 750.873 33.5653 761.725 33.5653C770 33.5653 776.805 34.491 782.138 36.3423C787.533 38.1534 791.824 40.3468 795.012 42.9226C798.198 45.4581 800.621 47.8528 802.275 50.1065H804.115V34.7728H836.943V129.009C836.943 136.938 834.062 143.498 828.299 148.689C822.536 153.882 814.659 157.765 804.667 160.341C794.674 162.916 783.334 164.204 770.644 164.204ZM770.919 109.027C777.969 109.027 783.978 107.9 788.943 105.646C793.908 103.393 797.679 100.153 800.252 95.9269C802.827 91.701 804.115 86.63 804.115 80.7138C804.115 74.8781 802.827 69.7668 800.252 65.38C797.739 60.9931 794 57.5923 789.035 55.1775C784.13 52.7225 778.092 51.495 770.919 51.495C763.502 51.495 757.31 52.7628 752.345 55.2983C747.379 57.8338 743.639 61.3151 741.126 65.7422C738.613 70.129 737.357 75.1196 737.357 80.7138C737.357 86.3885 738.613 91.3588 741.126 95.625C743.701 99.8509 747.472 103.151 752.437 105.526C757.464 107.86 763.625 109.027 770.919 109.027ZM911.701 129.371C902.751 129.371 894.69 128.326 887.517 126.232C880.406 124.099 874.766 120.96 870.597 116.814C866.49 112.67 864.438 107.558 864.438 101.481C864.438 96.2488 865.909 91.9224 868.851 88.5015C871.793 85.0805 875.808 82.3437 880.897 80.2912C885.985 78.2387 891.717 76.6891 898.092 75.6428C904.528 74.5562 911.18 73.7713 918.047 73.2884C926.322 72.7249 933.035 72.2218 938.184 71.7791C943.334 71.2962 947.073 70.5718 949.403 69.6059C951.793 68.5997 952.988 67.0502 952.988 64.9574V64.5952C952.988 60.0474 950.934 56.5258 946.828 54.0306C942.721 51.5353 936.804 50.2876 929.081 50.2876C920.927 50.2876 914.46 51.4547 909.678 53.7891C904.957 56.1234 901.771 58.8802 900.115 62.0597L869.034 59.1619C871.487 53.5275 875.533 48.8187 881.172 45.0355C886.812 41.2121 893.709 38.3547 901.863 36.4631C910.015 34.5312 919.028 33.5653 928.896 33.5653C935.702 33.5653 942.475 34.0885 949.219 35.135C955.962 36.1813 962.122 37.9119 967.701 40.3267C973.279 42.7012 977.754 45.941 981.127 50.0462C984.559 54.1513 986.276 59.2827 986.276 65.4403V127.5H954.276V114.762H953.172C951.149 117.338 948.299 119.752 944.621 122.007C941.004 124.22 936.437 126.01 930.919 127.379C925.464 128.707 919.058 129.371 911.701 129.371ZM920.345 113.313C927.027 113.313 932.819 112.448 937.725 110.718C942.628 108.947 946.398 106.612 949.034 103.714C951.732 100.817 953.08 97.6575 953.08 94.2365V83.3097C952.038 83.8731 950.261 84.3963 947.747 84.8793C945.296 85.3622 942.536 85.7848 939.471 86.147C936.406 86.5093 933.371 86.8312 930.368 87.1129C927.364 87.3947 924.758 87.6362 922.552 87.8374C917.586 88.28 913.141 89.0045 909.218 90.0106C905.295 91.0168 902.199 92.4254 899.93 94.2365C897.663 96.0073 896.529 98.3013 896.529 101.119C896.529 105.143 898.767 108.182 903.242 110.234C907.717 112.287 913.418 113.313 920.345 113.313ZM1019.75 127.5V34.7728H1052.02V50.2272H1053.49C1056.07 44.8745 1060.48 40.7493 1066.74 37.8516C1073.05 34.9135 1080.25 33.4446 1088.35 33.4446C1090.18 33.4446 1092.24 33.505 1094.51 33.6257C1096.84 33.7062 1098.77 33.8471 1100.3 34.0483V54.1513C1098.89 53.8293 1096.65 53.5476 1093.59 53.3062C1090.58 53.0244 1087.67 52.8835 1084.85 52.8835C1078.78 52.8835 1073.32 53.7488 1068.48 55.4794C1063.7 57.1697 1059.93 59.5241 1057.17 62.5426C1054.41 65.561 1053.04 69.0424 1053.04 72.9865V127.5H1019.75ZM1169.01 129.13C1157.91 129.13 1147.98 127.259 1139.22 123.516C1130.45 119.772 1123.52 114.34 1118.44 107.216C1113.35 100.092 1110.81 91.4394 1110.81 81.2571C1110.81 70.9541 1113.38 62.2609 1118.53 55.1775C1123.74 48.054 1130.76 42.6812 1139.59 39.059C1148.41 35.3966 1158.25 33.5653 1169.1 33.5653C1177.38 33.5653 1184.18 34.491 1189.52 36.3423C1194.85 38.1534 1199.08 40.3468 1202.21 42.9226C1205.33 45.4581 1207.75 47.8528 1209.47 50.1065H1210.85V3.86363H1244.23V127.5H1211.5V112.891H1209.47C1207.75 115.144 1205.27 117.539 1202.02 120.074C1198.77 122.57 1194.48 124.702 1189.15 126.474C1183.82 128.245 1177.1 129.13 1169.01 129.13ZM1178.3 111.2C1185.35 111.2 1191.36 109.953 1196.32 107.457C1201.29 104.922 1205.06 101.4 1207.63 96.8928C1210.21 92.3852 1211.5 87.1331 1211.5 81.1363C1211.5 75.1397 1210.21 69.9278 1207.63 65.5007C1205.12 61.0737 1201.38 57.6326 1196.41 55.1775C1191.51 52.7225 1185.47 51.495 1178.3 51.495C1170.88 51.495 1164.69 52.7628 1159.72 55.2983C1154.76 57.8338 1151.02 61.3353 1148.51 65.8025C1145.99 70.2699 1144.74 75.3812 1144.74 81.1363C1144.74 86.9318 1145.99 92.1034 1148.51 96.6513C1151.08 101.159 1154.85 104.721 1159.82 107.337C1164.84 109.912 1171 111.2 1178.3 111.2ZM1342.23 129.312C1328.07 129.312 1315.84 127.379 1305.54 123.516C1295.3 119.612 1287.43 114.098 1281.91 106.975C1276.39 99.8106 1273.63 91.379 1273.63 81.6797C1273.63 72.1413 1276.39 63.7701 1281.91 56.566C1287.49 49.3218 1295.27 43.6872 1305.26 39.6626C1315.26 35.5978 1327 33.5653 1340.48 33.5653C1349.19 33.5653 1357.4 34.491 1365.13 36.3423C1372.91 38.1534 1379.78 40.9706 1385.72 44.794C1391.73 48.6174 1396.45 53.4872 1399.89 59.4034C1403.32 65.2794 1405.04 72.2822 1405.04 80.4119V87.1129H1289.27V72.3828H1373.13C1373.07 68.1972 1371.69 64.4744 1368.99 61.2145C1366.29 57.9143 1362.52 55.3184 1357.68 53.4269C1352.9 51.5353 1347.32 50.5895 1340.94 50.5895C1334.14 50.5895 1328.16 51.6762 1323.01 53.8494C1317.86 55.9825 1313.85 58.7997 1310.97 62.3012C1308.15 65.7623 1306.7 69.5656 1306.64 73.7109V86.5696C1306.64 91.9626 1308.15 96.5909 1311.15 100.455C1314.15 104.278 1318.35 107.216 1323.75 109.269C1329.14 111.281 1335.46 112.287 1342.69 112.287C1347.53 112.287 1351.92 111.844 1355.84 110.959C1359.76 110.034 1363.16 108.685 1366.05 106.914C1368.93 105.143 1371.1 102.95 1372.58 100.334L1403.65 102.628C1401.69 108.021 1397.95 112.729 1392.44 116.754C1386.98 120.738 1379.99 123.838 1371.47 126.051C1362.95 128.225 1353.2 129.312 1342.23 129.312Z" fill="white"/>
</svg>
